<svg xmlns="http://www.w3.org/2000/svg" viewBox="0 0 16 16" fill="#000000" id="Cow-Thin--Streamline-Phosphor-Thin" height="16" width="16">
  <desc>
    Cow Thin Streamline Icon: https://streamlinehq.com
  </desc>
  <path d="M6.10825 12.5952375c0 0.14928125 -0.121025 0.2703 -0.2703125 0.27030625H4.75670625c-0.20808125 -0.00000625 -0.3381375 -0.22526875 -0.2340875 -0.405475 0.0482875 -0.08361875 0.137525 -0.1351375 0.2340875 -0.13514375H5.8379375c0.1492875 0.0000125 0.2703125 0.12103125 0.2703125 0.2703125Zm5.13585 -0.2703125h-1.08123125c-0.20808125 0.0000125 -0.3381375 0.225275 -0.2340875 0.405475 0.0482875 0.083625 0.137525 0.1351375 0.2340875 0.13514375h1.08123125c0.20808125 -0.00000625 0.3381375 -0.22526875 0.2340875 -0.405475 -0.0482875 -0.08361875 -0.137525 -0.1351375 -0.2340875 -0.13514375ZM6.10825 7.45938125c-0.41616875 0 -0.676275 0.45051875 -0.4681875 0.810925 0.20808125 0.3604125 0.7282875 0.3604125 0.936375 0 0.04745 -0.08218125 0.072425 -0.17540625 0.072425 -0.27030625 0 -0.298575 -0.2420375 -0.54061875 -0.5406125 -0.54061875Zm3.7843125 0c-0.41616875 0 -0.676275 0.45051875 -0.4681875 0.810925 0.20808125 0.3604125 0.7282875 0.3604125 0.936375 0 0.04744375 -0.08218125 0.072425 -0.17540625 0.072425 -0.27030625 0 -0.298575 -0.24204375 -0.54061875 -0.5406125 -0.54061875Zm5.76431875 0.24260625c-0.15409375 0.18869375 -0.38485 0.29811875 -0.62846875 0.2980125h-2.432775v2.57333125c1.5564625 1.04144375 1.40185625 3.37726875 -0.27829375 4.2044875 -0.3339 0.16439375 -0.70106875 0.24998125 -1.07324375 0.2501875H4.75670625c-1.87274375 -0.00103125 -3.0421 -2.0289875 -2.10483125 -3.65031875 0.18626875 -0.32220625 0.443975 -0.5973875 0.75329375 -0.80435625V8H0.97239375c-0.2440875 0.0005125 -0.475425 -0.10895 -0.6298125 -0.2980125 -0.152975 -0.18545625 -0.21428125 -0.42994375 -0.16691875 -0.6656375C0.50864375 5.39658125 1.949525 4.21754375 3.62276875 4.2156875H4.509375C3.4864875 3.57315 2.865325 2.45025625 2.86455 1.2423c0 -0.20808125 0.22525625 -0.3381375 0.4054625 -0.23409375 0.0836375 0.0482875 0.13515625 0.137525 0.13515625 0.23409375 0.0018625 1.6413875 1.332 2.971525 2.9733875 2.9733875h3.24369375c1.6413875 -0.0018625 2.971525 -1.332 2.9733875 -2.9733875 0 -0.20808125 0.22525625 -0.3381375 0.4054625 -0.23409375 0.0836375 0.0482875 0.13515625 0.137525 0.13515625 0.23409375 -0.00076875 1.20795625 -0.62193125 2.33085 -1.644825 2.9733875h0.8866125c1.67298125 0.002175 3.1135 1.1811375 3.446425 2.8206625 0.04718125 0.23579375 -0.01438125 0.48029375 -0.16759375 0.6656375Zm-12.2517125 -0.24260625v-0.81091875c0.00003125 -0.7353875 0.33325625 -1.4311625 0.90620625 -1.89215625H3.62276875c-1.41510625 0.00214375 -2.633475 0.999375 -2.915275 2.38614375 -0.0156625 0.07686875 0.00448125 0.1566875 0.0547375 0.21691875 0.05138125 0.0633375 0.12860625 0.1000875 0.2101625 0.1000125Zm7.83893125 3.2437H4.75670625c-1.45658125 0.0008375 -2.3660375 1.57815625 -1.63701875 2.839175 0.33794375 0.58456875 0.9618 0.94474375 1.63701875 0.9451375h6.48739375c1.45658125 -0.00084375 2.3660375 -1.5781625 1.637025 -2.83918125 -0.33795 -0.5845625 -0.9618 -0.94474375 -1.637025 -0.94513125Zm0.810925 -0.40140625v-3.6532125c0 -1.04498125 -0.84718125 -1.8921125 -1.89215625 -1.89215625H5.8379375c-1.0450375 -0.00005 -1.89215625 0.8471125 -1.89215625 1.89215625v3.6532125c0.26040625 -0.0922625 0.5346625 -0.13934375 0.810925 -0.1392125h6.48739375c0.2762625 -0.00013125 0.55051875 0.04695 0.810925 0.1392125Zm3.2382875 -3.159225c-0.2818 -1.38676875 -1.50016875 -2.384 -2.91526875 -2.38614375h-0.6886125c0.57295625 0.46099375 0.90618125 1.15676875 0.90620625 1.89215625v0.81091875h2.432775c0.082025 0.0004875 0.1598375 -0.03630625 0.21151875 -0.1000125 0.049775 -0.0604625 0.0694125 -0.14025625 0.05338125 -0.21691875Z" stroke-width="0.0625"></path>
</svg>