<svg id="Chicken-Leg--Streamline-Atlas" xmlns="http://www.w3.org/2000/svg" viewBox="-0.5 -0.5 16 16" height="16" width="16">
  <desc>
    Chicken Leg Streamline Icon: https://streamlinehq.com
  </desc>
  <defs></defs>
  <path d="M12.825 7.53125c-1.7249999999999999 1.7249999999999999 -4.6875 2.2875 -6.168749999999999 0.8125S5.7437499999999995 3.9000000000000004 7.5 2.175a3.675 3.675 0 0 1 5.4312499999999995 -0.075 3.675 3.675 0 0 1 -0.10625000000000001 5.4312499999999995Z" fill="none" stroke="#000000" stroke-miterlimit="10" stroke-width="1"></path>
  <path d="M7.76875 9.01875 5.525 11.25a1.2125 1.2125 0 0 0 -0.3375 1.18125 1.25 1.25 0 1 1 -2.4125 0.71875 1.38125 1.38125 0 0 0 -0.9375 -0.9375 1.25 1.25 0 1 1 0.71875 -2.4A1.2125 1.2125 0 0 0 3.75 9.475l2.24375 -2.24375" fill="none" stroke="#000000" stroke-miterlimit="10" stroke-width="1"></path>
</svg>