<svg xmlns="http://www.w3.org/2000/svg" viewBox="0 0 24 24" fill="none" stroke="#000000" stroke-linecap="round" stroke-linejoin="round" id="Pig--Streamline-Tabler" height="24" width="24">
  <desc>
    Pig Streamline Icon: https://streamlinehq.com
  </desc>
  <path d="M15 11v0.01" stroke-width="2"></path>
  <path d="m16 3 0 3.803A6.019 6.019 0 0 1 18.658 10h1.341a1 1 0 0 1 1 1v2a1 1 0 0 1 -1 1h-1.342a6.008 6.008 0 0 1 -1.658 2.473V18.5a1.5 1.5 0 0 1 -3 0v-0.583a6.04 6.04 0 0 1 -1 0.083h-4a6.04 6.04 0 0 1 -1 -0.083v0.583a1.5 1.5 0 0 1 -3 0v-2l0 -0.027A6 6 0 0 1 8.999 6h2.5l4.5 -3z" stroke-width="2"></path>
</svg>