<?xml version="1.0" encoding="iso-8859-1"?>
<!-- Uploaded to: SVG Repo, www.svgrepo.com, Generator: SVG Repo Mixer Tools -->
<svg fill="#000000" height="800px" width="800px" version="1.1" id="Layer_1" xmlns="http://www.w3.org/2000/svg" xmlns:xlink="http://www.w3.org/1999/xlink" 
	 viewBox="0 0 512 512" xml:space="preserve">
<g>
	<g>
		<path d="M399.321,64.949V19.563C399.321,8.775,390.546,0,379.759,0h-27.781c-10.788,0-19.563,8.775-19.563,19.563V64.68
			c-4.578,2.688-8.87,5.942-12.784,9.73c-3.587,3.47-6.717,7.256-9.366,11.292c-5.409-8.489-12.748-15.641-21.399-20.842V19.563
			C288.867,8.775,280.092,0,269.304,0h-27.781c-10.787,0-19.563,8.775-19.563,19.563v45.32c-8.545,5.151-15.809,12.208-21.189,20.58
			c-5.38-8.372-12.644-15.43-21.189-20.58v-45.32C179.582,8.775,170.807,0,160.02,0H132.24c-10.787,0-19.563,8.775-19.563,19.563
			v45.385c-18.673,11.344-31.173,31.877-31.173,55.276v271.552c0,23.399,12.5,43.933,31.173,55.276v45.385
			c0,10.787,8.775,19.563,19.563,19.563h27.781c10.787,0,19.563-8.775,19.563-19.563v-45.316
			c8.549-5.151,15.816-12.21,21.198-20.584c5.378,8.369,12.639,15.426,21.18,20.577v45.323c0,10.787,8.775,19.563,19.563,19.563
			h27.781c10.788,0,19.563-8.775,19.563-19.563v-45.174c8.763-5.191,16.203-12.354,21.684-20.869
			c5.521,8.549,13.024,15.735,21.865,20.932v45.111c0,10.787,8.775,19.563,19.563,19.563h27.781
			c10.787,0,19.563-8.775,19.563-19.563v-45.385c18.673-11.344,31.173-31.877,31.173-55.276V120.224
			C430.495,96.825,417.995,76.291,399.321,64.949z M352.814,20.398h26.11v36.525c-4.217-0.869-8.584-1.326-13.055-1.326
			c-4.425,0-8.793,0.445-13.055,1.3V20.398z M242.359,20.398h26.11v36.518c-4.218-0.861-8.584-1.319-13.055-1.319
			c-4.471,0-8.836,0.459-13.055,1.322V20.398z M133.075,20.398h26.11V56.92c-4.218-0.863-8.584-1.322-13.055-1.322
			c-4.471,0-8.837,0.457-13.055,1.326V20.398z M159.184,491.602h-26.11v-36.525c4.217,0.869,8.584,1.326,13.055,1.326
			c4.471,0,8.836-0.459,13.055-1.322V491.602z M268.469,491.602h-26.11v-36.522c4.218,0.863,8.584,1.323,13.055,1.323
			c4.47,0,8.835-0.451,13.055-1.301V491.602z M352.813,491.602V455.11c4.22,0.845,8.586,1.292,13.055,1.292
			c4.471,0,8.837-0.457,13.055-1.326v36.525H352.813z M410.099,391.776h-0.002c0,24.387-19.84,44.228-44.228,44.228
			c-24.466,0-45.136-20.254-45.136-44.228c0-5.632-4.566-10.199-10.199-10.199c-5.633,0-10.199,4.567-10.199,10.199
			c0,24.387-20.152,44.228-44.92,44.228c-24.5,0-44.432-19.841-44.432-44.228c0-0.194-0.018-0.382-0.029-0.573
			c0.01-0.191,0.029-0.379,0.029-0.573V246.821c0-5.632-4.566-10.199-10.199-10.199c-5.633,0-10.199,4.567-10.199,10.199V390.63
			c0,0.194,0.018,0.382,0.029,0.573c-0.01,0.191-0.029,0.379-0.029,0.573c0,24.387-19.941,44.228-44.453,44.228
			c-24.387,0-44.228-19.841-44.228-44.228V120.224c0-24.387,19.841-44.228,44.228-44.228c24.506,0,44.443,19.841,44.443,44.228
			c0,5.632,4.566,10.199,10.199,10.199c5.633,0,10.199-4.567,10.199-10.199c0-24.387,19.936-44.228,44.443-44.228
			c24.543,0,44.511,19.841,44.511,44.228c0,0.366,0.021,0.727,0.059,1.083c-0.038,0.356-0.059,0.717-0.059,1.083v50.996
			c0,5.632,4.566,10.199,10.199,10.199c5.633,0,10.199-4.567,10.199-10.199V122.39c0-0.366-0.021-0.727-0.059-1.083
			c0.038-0.356,0.059-0.717,0.059-1.083c0-23.974,20.857-44.228,45.546-44.228c24.387,0,44.228,19.841,44.228,44.228V391.776z"/>
	</g>
</g>
<g>
	<g>
		<path d="M126.075,159.185c-5.633,0-10.199,4.567-10.199,10.199v223.561c0,5.632,4.566,10.199,10.199,10.199
			c5.633,0,10.199-4.567,10.199-10.199V169.384C136.275,163.752,131.708,159.185,126.075,159.185z"/>
	</g>
</g>
<g>
	<g>
		<path d="M126.075,112.367c-5.633,0-10.199,4.567-10.199,10.199v8.193c0,5.632,4.566,10.199,10.199,10.199
			c5.633,0,10.199-4.567,10.199-10.199v-8.193C136.275,116.933,131.708,112.367,126.075,112.367z"/>
	</g>
</g>
</svg>