<?xml version="1.0" encoding="iso-8859-1"?>
<!-- Uploaded to: SVG Repo, www.svgrepo.com, Generator: SVG Repo Mixer Tools -->
<svg fill="#000000" height="800px" width="800px" version="1.1" id="Capa_1" xmlns="http://www.w3.org/2000/svg" xmlns:xlink="http://www.w3.org/1999/xlink" 
	 viewBox="0 0 466 466" xml:space="preserve">
<g>
	<path d="M185.322,47.679C83.135,47.679,0,130.813,0,233s83.135,185.321,185.322,185.321c102.187,0,185.321-83.135,185.321-185.321
		S287.508,47.679,185.322,47.679z M185.322,402.321C91.958,402.321,16,326.364,16,233S91.958,63.679,185.322,63.679
		S354.643,139.636,354.643,233S278.686,402.321,185.322,402.321z"/>
	<path d="M466,141.278c0-31.745-19.854-67.117-48.345-67.117c-28.487,0-48.339,35.372-48.339,67.117
		c0,27.435,17.784,51.039,40.336,55.645l-0.001,191.927c0,4.418,3.582,8,8,8s8-3.582,8-8l0.001-191.927
		C448.21,192.319,466,168.713,466,141.278z M417.651,181.75c-17.528,0-32.336-18.534-32.336-40.472
		c0-25.798,16.019-51.117,32.339-51.117c16.324,0,32.345,25.319,32.345,51.117C450,163.216,435.186,181.75,417.651,181.75z"/>
	<path d="M140.22,142.314c-27.898,0-50.596,22.697-50.596,50.596s22.697,50.596,50.596,50.596s50.596-22.697,50.596-50.596
		S168.119,142.314,140.22,142.314z M140.22,227.506c-19.076,0-34.596-15.52-34.596-34.596s15.52-34.596,34.596-34.596
		s34.596,15.52,34.596,34.596S159.296,227.506,140.22,227.506z"/>
	<path d="M179.827,273.09c0,27.898,22.697,50.596,50.596,50.596s50.596-22.697,50.596-50.596s-22.697-50.596-50.596-50.596
		S179.827,245.191,179.827,273.09z M230.423,238.494c19.076,0,34.596,15.52,34.596,34.596s-15.52,34.596-34.596,34.596
		s-34.596-15.52-34.596-34.596S211.347,238.494,230.423,238.494z"/>
	<path d="M226.796,150.795h-5.555c-4.418,0-8,3.582-8,8s3.582,8,8,8h5.555c4.418,0,8-3.582,8-8S231.214,150.795,226.796,150.795z"/>
	<path d="M232.992,188.808l3.928,3.928c1.562,1.562,3.609,2.343,5.657,2.343s4.095-0.781,5.657-2.343
		c3.125-3.125,3.125-8.189,0-11.314l-3.928-3.928c-3.124-3.123-8.189-3.123-11.313,0
		C229.867,180.618,229.867,185.683,232.992,188.808z"/>
	<path d="M126.338,297.62l-3.928,3.928c-3.125,3.125-3.125,8.189,0,11.314c1.562,1.562,3.609,2.343,5.657,2.343
		s4.095-0.781,5.657-2.343l3.928-3.928c3.125-3.125,3.125-8.189,0-11.314C134.527,294.497,129.462,294.497,126.338,297.62z"/>
	<path d="M185.322,83.182c-82.61,0-149.819,67.208-149.819,149.818c0,18.432,3.31,36.433,9.838,53.503
		c1.578,4.126,6.204,6.193,10.33,4.615c4.127-1.579,6.193-6.203,4.615-10.33c-5.828-15.239-8.783-31.317-8.783-47.788
		c0-73.788,60.031-133.818,133.819-133.818c73.788,0,133.818,60.03,133.818,133.818s-60.031,133.818-133.818,133.818
		c-45.552,0-87.562-22.852-112.375-61.128c-2.403-3.708-7.357-4.764-11.064-2.361c-3.708,2.403-4.765,7.357-2.361,11.064
		c27.775,42.846,74.804,68.425,125.801,68.425c82.61,0,149.818-67.208,149.818-149.818S267.932,83.182,185.322,83.182z"/>
</g>
</svg>