<svg xmlns="http://www.w3.org/2000/svg" viewBox="0 0 16 16" fill="#000000" id="Bowl-Steam--Streamline-Phosphor" height="16" width="16">
  <desc>
    Bowl Steam Streamline Icon: https://streamlinehq.com
  </desc>
  <path d="M15.23691875 6.79385H0.76308125c-0.33308125 -0.0000125 -0.603075 0.27 -0.603075 0.60308125 0.0054 2.9230625 1.63116875 5.6021 4.22153125 6.9564875v0.28043125c0 0.6661375 0.54001875 1.20615 1.20615625 1.20615h4.8246125c0.6661375 0 1.20615 -0.5400125 1.20615 -1.20615v-0.28043125c2.59036875 -1.3543875 4.2161375 -4.033425 4.2215375 -6.95649375 0 -0.33305625 -0.2700125 -0.6030625 -0.603075 -0.603075Zm-4.47331875 6.63384375c-0.21410625 0.098375 -0.3513125 0.312425 -0.35129375 0.54804375v0.6581125H5.58769375V13.97725c0.00060625 -0.23616875 -0.13669375 -0.45095625 -0.35129375 -0.54955625 -2.1585 -0.99326875 -3.62378125 -3.0619 -3.8446125 -5.4276875h13.2141625c-0.2203875 2.3652875 -1.684725 4.4338 -3.84235 5.4276875ZM4.51496875 2.49693125c0.4033125 -0.5020625 0.50281875 -0.84129375 0.46135625 -0.99055625 -0.0316625 -0.11231875 -0.181675 -0.17036875 -0.18318125 -0.17036875 -0.44104375 -0.14494375 -0.55979375 -0.712975 -0.21374375 -1.02245625 0.11138125 -0.09961875 0.2557875 -0.15433125 0.40521875 -0.15354375 0.06081875 0.000075 0.12129375 0.00921875 0.1794125 0.02714375 0.0753875 0.02336875 0.7470625 0.25103125 0.96416875 0.96190625 0.18545 0.60835 -0.0414625 1.31545625 -0.6739375 2.102475 -0.40330625 0.5020625 -0.5028125 0.84129375 -0.46135625 0.99055 0.0316625 0.112325 0.1786625 0.1688625 0.180175 0.16961875 0.44103125 0.1449625 0.55975625 0.71299375 0.2137 1.0224625 -0.11060625 0.0989125 -0.2537875 0.153575 -0.4021625 0.1535375 -0.060825 -0.000075 -0.12129375 -0.00921875 -0.17941875 -0.0271375 -0.07538125 -0.023375 -0.74705625 -0.25103125 -0.96416875 -0.9619125 -0.18544375 -0.60835 0.0414625 -1.31545625 0.6739375 -2.10171875Zm3.0153875 0c0.40330625 -0.5020625 0.5028125 -0.84129375 0.46135 -0.99055625 -0.03165625 -0.11231875 -0.181675 -0.17036875 -0.18318125 -0.17036875 -0.44104375 -0.14494375 -0.5597875 -0.712975 -0.21374375 -1.02245625 0.1113875 -0.09961875 0.2557875 -0.15433125 0.40521875 -0.15354375 0.060825 0.000075 0.12129375 0.00921875 0.1794125 0.02714375 0.0753875 0.02336875 0.7470625 0.25103125 0.96416875 0.96190625 0.18545 0.60835 -0.04145625 1.31545625 -0.6739375 2.102475 -0.40330625 0.5020625 -0.5028125 0.84129375 -0.46135 0.99055 0.0316625 0.112325 0.1786625 0.1688625 0.18016875 0.16961875 0.4410375 0.1449625 0.55975625 0.71299375 0.2137 1.0224625 -0.11060625 0.0989125 -0.2537875 0.153575 -0.4021625 0.1535375 -0.06081875 -0.000075 -0.12129375 -0.00921875 -0.1794125 -0.0271375 -0.0753875 -0.023375 -0.7470625 -0.25103125 -0.96416875 -0.9619125 -0.18545 -0.60835 0.04145625 -1.31545625 0.6739375 -2.10171875Zm3.01538125 0c0.40330625 -0.5020625 0.5028125 -0.84129375 0.46135625 -0.99055625 -0.0316625 -0.11231875 -0.18168125 -0.17036875 -0.1831875 -0.17036875 -0.44104375 -0.14494375 -0.5597875 -0.712975 -0.21374375 -1.02245625 0.1113875 -0.09961875 0.2557875 -0.15433125 0.40521875 -0.15354375 0.060825 0.000075 0.12129375 0.00921875 0.17941875 0.02714375 0.07538125 0.02336875 0.7470625 0.25103125 0.96416875 0.96190625 0.18544375 0.60835 -0.0414625 1.31545625 -0.6739375 2.102475 -0.4033125 0.5020625 -0.50281875 0.84129375 -0.46135625 0.99055 0.0316625 0.112325 0.1786625 0.1688625 0.18016875 0.16961875 0.4410375 0.1449625 0.5597625 0.71299375 0.2137 1.0224625 -0.1106 0.0989125 -0.25378125 0.153575 -0.4021625 0.1535375 -0.06081875 -0.000075 -0.12129375 -0.00921875 -0.1794125 -0.0271375 -0.0753875 -0.023375 -0.7470625 -0.25103125 -0.96416875 -0.9619125 -0.18544375 -0.60835 0.0414625 -1.31545625 0.6739375 -2.10171875Z" stroke-width="0.0625"></path>
</svg>